# xmcd CD database file
# Copyright (C) 1997 Ti Kan
#
# Track frame offsets:
#  150
#  11010
#  36990
#  56110
#  87907
#  112945
#  139330
#  154092
#  172955
#  196647
#  220045
#  243410
#  270370
#
# Disc length: 3788 seconds
#
# Revision: 1
# Processed by: cddbd v1.4b41PL1 Copyright (c) Steve Scherf et al.
# Submitted via: CDWizzard Release:4.35
#
DISCID=a80eca0d
DTITLE=Eddy Clearwater - "A Real Good Time" Live!
DYEAR=1900
DGENRE=
TTITLE0=How!
TTITLE1=A Real Good Time/Cool Water
TTITLE2=Three Ways To Skin A Cat
TTITLE3=Lowdown Lonesome Feeling
TTITLE4=Hustlin' And Schemin'
TTITLE5=Hi-Yo Silver
TTITLE6=I'll Change My Style
TTITLE7=My Little Honey Bee
TTITLE8=Party At My House
TTITLE9=Tear Down The Wall Of Hate
TTITLE10=All Your Love
TTITLE11=Get Off On The Blues
TTITLE12=Goodnight, Sweetheart, Goodnight
EXTD=
EXTT0=
EXTT1=
EXTT2=
EXTT3=
EXTT4=
EXTT5=
EXTT6=
EXTT7=
EXTT8=
EXTT9=
EXTT10=
EXTT11=
EXTT12=
PLAYORDER=
